<?xml version="1.0" encoding="UTF-8" standalone="no"?>
<!DOCTYPE svg PUBLIC "-//W3C//DTD SVG 1.1//EN" "http://www.w3.org/Graphics/SVG/1.1/DTD/svg11.dtd">
<svg width="100%" height="100%" viewBox="0 0 3264 420" version="1.1" xmlns="http://www.w3.org/2000/svg" xmlns:xlink="http://www.w3.org/1999/xlink" xml:space="preserve" xmlns:serif="http://www.serif.com/" style="fill-rule:evenodd;clip-rule:evenodd;stroke-linejoin:round;stroke-miterlimit:2;">
    <g transform="matrix(1,0,0,1,-232.382,-507.823)">
        <g transform="matrix(0.531737,0,0,0.392894,445.228,360.678)">
            <path d="M1215.47,758.739C1315.85,758.739 1393.02,793.231 1446.96,862.217C1500.9,931.202 1519.43,1011.83 1502.55,1104.09C1486.6,1193.81 1442.97,1270.41 1371.67,1333.9C1300.38,1397.38 1212.66,1429.12 1108.53,1429.12C1007.21,1429.12 934.03,1394.42 888.999,1325.01L872.113,1411.35L690.582,1411.35L863.669,522.581L1045.2,522.581L981.875,845.076C1045.67,787.518 1123.54,758.739 1215.47,758.739ZM1321.01,1092.66C1331.33,1039.34 1321.72,996.378 1292.17,963.79C1262.62,931.202 1219.69,914.908 1163.41,914.908C1107.12,914.908 1057.4,931.414 1014.24,964.425C971.087,997.436 944.35,1040.61 934.03,1093.93C923.711,1147.26 934.03,1190.43 964.989,1223.44C995.948,1256.45 1039.57,1272.95 1095.86,1272.95C1152.15,1272.95 1201.4,1256.24 1243.62,1222.8C1285.83,1189.37 1311.63,1145.99 1321.01,1092.66Z" style="fill:rgb(216,255,207);fill-rule:nonzero;"/>
            <path d="M2145.64,776.514L2327.17,776.514L2203.34,1411.35L2021.81,1411.35L2033.07,1352.94C1972.09,1403.73 1894.22,1429.12 1799.47,1429.12C1693.46,1429.12 1614.65,1394 1563.06,1323.74C1511.46,1253.49 1495.51,1171.8 1515.21,1078.69C1533.04,988.125 1578.3,912.157 1651.01,850.79C1723.71,789.422 1810.73,758.739 1912.04,758.739C2011.49,758.739 2083.72,793.02 2128.76,861.582L2145.64,776.514ZM1855.76,1272.95C1910.17,1272.95 1958.48,1257.51 2000.7,1226.61C2042.91,1195.72 2070.12,1154.88 2082.32,1104.09L2085.13,1083.77C2092.64,1032.14 2080.68,991.088 2049.25,960.616C2017.82,930.144 1975.37,914.908 1921.89,914.908C1866.54,914.908 1817.76,930.779 1775.55,962.52C1733.33,994.262 1707.06,1037.64 1696.74,1092.66C1686.42,1145.99 1696.27,1189.37 1726.29,1222.8C1756.31,1256.24 1799.47,1272.95 1855.76,1272.95Z" style="fill:rgb(216,255,207);fill-rule:nonzero;"/>
            <path d="M2809.85,758.739C2910.23,758.739 2987.39,793.231 3041.33,862.217C3095.28,931.202 3113.81,1011.83 3096.92,1104.09C3080.97,1193.81 3037.35,1270.41 2966.05,1333.9C2894.75,1397.38 2807.03,1429.12 2702.9,1429.12C2601.58,1429.12 2528.41,1394.42 2483.37,1325.01L2466.49,1411.35L2284.96,1411.35L2458.04,522.581L2639.58,522.581L2576.25,845.076C2640.04,787.518 2717.91,758.739 2809.85,758.739ZM2915.39,1092.66C2925.71,1039.34 2916.09,996.378 2886.54,963.79C2856.99,931.202 2814.07,914.908 2757.78,914.908C2701.49,914.908 2651.77,931.414 2608.62,964.425C2565.46,997.436 2538.72,1040.61 2528.41,1093.93C2518.09,1147.26 2528.41,1190.43 2559.36,1223.44C2590.32,1256.45 2633.95,1272.95 2690.23,1272.95C2746.52,1272.95 2795.78,1256.24 2837.99,1222.8C2880.21,1189.37 2906.01,1145.99 2915.39,1092.66Z" style="fill:rgb(216,255,207);fill-rule:nonzero;"/>
            <path d="M3332.44,1429.12C3188.91,1429.12 3093.68,1377.07 3046.78,1272.95L3210.01,1199.31C3228.78,1253.49 3274.75,1280.57 3347.92,1280.57C3408.9,1280.57 3443.14,1264.07 3450.65,1231.06C3453.46,1213.28 3443.14,1198.89 3419.69,1187.89C3396.24,1176.88 3367.15,1166.73 3332.44,1157.41C3297.73,1148.1 3263.49,1136.89 3229.72,1123.77C3195.94,1110.65 3169.21,1088.85 3149.51,1058.38C3129.8,1027.91 3124.18,990.242 3132.62,945.38C3144.81,886.129 3178.35,840.209 3233.23,807.621C3288.12,775.033 3349.8,758.739 3418.28,758.739C3479.26,758.739 3532.74,770.589 3578.7,794.29C3624.67,817.99 3658.45,851.001 3680.03,893.324L3516.79,966.964C3499.9,924.642 3463.78,903.481 3408.43,903.481C3354.02,903.481 3322.59,921.679 3314.15,958.077C3310.4,977.545 3320.01,992.781 3343,1003.78C3365.98,1014.79 3395.06,1024.52 3430.24,1032.99C3465.42,1041.45 3500.14,1051.82 3534.38,1064.09C3568.62,1076.37 3595.59,1097.53 3615.29,1127.58C3634.99,1157.63 3640.15,1196.35 3630.77,1243.75C3618.58,1305.54 3585.51,1351.88 3531.56,1382.78C3477.62,1413.68 3411.25,1429.12 3332.44,1429.12Z" style="fill:rgb(216,255,207);fill-rule:nonzero;"/>
            <path d="M3942.8,933.953L3890.74,1198.04C3884.17,1231.06 3892.14,1250.95 3914.66,1257.72C3937.18,1264.49 3977.98,1266.18 4037.09,1262.8L4008.94,1411.35C3890.74,1424.05 3807.01,1413.04 3757.76,1378.34C3708.5,1343.63 3692.32,1283.54 3709.21,1198.04L3761.27,933.953L3638.85,933.953L3669.8,776.514L3790.82,776.514L3816.15,648.278L4007.54,598.761L3972.36,776.514L4132.78,776.514L4100.41,933.953L3942.8,933.953Z" style="fill:rgb(216,255,207);fill-rule:nonzero;"/>
            <path d="M4206.3,850.79C4286.04,789.422 4377.98,758.739 4482.12,758.739C4586.25,758.739 4668.34,791.115 4728.38,855.868C4788.42,920.621 4808.59,999.976 4788.89,1093.93C4787.01,1112.55 4780.45,1134.98 4769.19,1161.22L4237.26,1161.22C4241.01,1201.85 4258.37,1231.9 4289.33,1251.37C4320.29,1270.84 4359.22,1280.57 4406.13,1280.57C4476.49,1280.57 4534.18,1258.99 4579.21,1215.82L4707.27,1308.51C4628.47,1388.92 4523.39,1429.12 4392.05,1429.12C4275.73,1429.12 4187.31,1395.69 4126.79,1328.82C4066.28,1261.95 4044.94,1179.42 4062.77,1081.23C4078.71,988.972 4126.56,912.157 4206.3,850.79ZM4262.59,1032.99L4620.02,1032.99C4619.09,989.818 4604.78,957.865 4577.1,937.127C4549.43,916.389 4514.01,906.02 4470.86,906.02C4423.95,906.02 4382.44,917.024 4346.32,939.032C4310.2,961.039 4282.29,992.358 4262.59,1032.99Z" style="fill:rgb(216,255,207);fill-rule:nonzero;"/>
            <path d="M5051.18,878.088C5101.84,800.215 5180.65,762.125 5287.59,763.817L5252.41,946.65C5219.58,943.264 5187.45,945.168 5156.02,952.363C5124.59,959.558 5094.34,975.852 5065.25,1001.25C5036.17,1026.64 5016.94,1060.07 5007.56,1101.55L4947.05,1411.35L4765.52,1411.35L4889.35,776.514L5070.88,776.514L5051.18,878.088Z" style="fill:rgb(216,255,207);fill-rule:nonzero;"/>
            <path d="M5737.9,638.12L5718.2,739.694L5592.96,730.806L5652.06,819.683L5552.15,873.009L5511.34,766.357L5431.13,873.009L5341.07,819.683L5433.94,730.806L5305.89,739.694L5325.59,638.12L5450.83,648.278L5391.73,558.131L5491.64,504.805L5531.04,611.457L5612.66,504.805L5702.72,558.131L5609.85,648.278L5737.9,638.12Z" style="fill:rgb(216,255,207);fill-rule:nonzero;"/>
        </g>
        <g transform="matrix(0.564227,0,0,0.564227,214.577,409.719)">
            <circle cx="500.32" cy="609.396" r="308.472" style="fill:rgb(216,255,207);"/>
        </g>
        <g transform="matrix(2.60007e-17,-0.424623,0.424623,2.60007e-17,92.9228,1295.7)">
            <path d="M1498.11,543.598C1498.11,424.764 1401.77,328.43 1282.94,328.43C1164.1,328.43 1067.77,424.764 1067.77,543.598C1211.22,470.629 1354.66,475.714 1498.11,543.598Z" style="fill:rgb(99,157,92);"/>
        </g>
        <g transform="matrix(2.60007e-17,0.424623,-0.424623,2.60007e-17,896.394,206.171)">
            <path d="M1498.11,543.598C1498.11,424.764 1401.77,328.43 1282.94,328.43C1164.1,328.43 1067.77,424.764 1067.77,543.598C1211.22,470.629 1354.66,475.714 1498.11,543.598Z" style="fill:rgb(99,157,92);"/>
        </g>
        <g transform="matrix(4.77722e-17,0.780179,-0.917795,5.61987e-17,761.86,-595.678)">
            <path d="M1603.59,99.942C1499.18,99.942 1414.42,184.707 1414.42,289.113C1414.42,393.519 1499.18,478.283 1603.59,478.283C1517.21,467.399 1447.07,386.382 1447.07,289.113C1447.07,191.844 1517.21,110.826 1603.59,99.942Z" style="fill:rgb(99,157,92);"/>
        </g>
        <g transform="matrix(-1.00824,1.23474e-16,-1.23474e-16,-1.00824,1598.7,1076.75)">
            <path d="M1218.6,384.564C1218.6,349.281 1190,320.679 1154.71,320.679C1119.43,320.679 1090.83,349.281 1090.83,384.564L1218.6,384.564Z" style="fill:rgb(72,86,70);"/>
        </g>
        <g transform="matrix(-1.00824,1.23474e-16,-1.23474e-16,-1.00824,1726.25,1076.75)">
            <path d="M1218.6,384.564C1218.6,349.281 1190,320.679 1154.71,320.679C1119.43,320.679 1090.83,349.281 1090.83,384.564L1218.6,384.564Z" style="fill:rgb(72,86,70);"/>
        </g>
        <g transform="matrix(0.914675,0,0,0.914675,-520.018,220.503)">
            <path d="M1019.97,605.735C1019.97,656.542 1061.16,697.729 1111.96,697.729C1162.77,697.729 1203.96,656.542 1203.96,605.735L1175.04,605.735C1158.86,684.964 1068.97,686.433 1043.58,605.735L1019.97,605.735Z" style="fill:rgb(137,162,125);"/>
        </g>
    </g>
</svg>
